<mxfile host="65bd71144e">
    <diagram id="-_sJZ-9OhW_i1UguKcxo" name="Page-1">
        <mxGraphModel dx="1929" dy="775" grid="1" gridSize="10" guides="1" tooltips="1" connect="1" arrows="1" fold="1" page="1" pageScale="1" pageWidth="850" pageHeight="1100" background="#808080" math="0" shadow="0">
            <root>
                <mxCell id="0"/>
                <mxCell id="1" parent="0"/>
                <mxCell id="34" value="Actual Plexus GameObject Data" style="rounded=0;whiteSpace=wrap;html=1;fillColor=#CCCCCC;fontColor=#1A1A1A;verticalAlign=top;fontSize=20;" parent="1" vertex="1">
                    <mxGeometry x="880" y="160" width="1280" height="860" as="geometry"/>
                </mxCell>
                <mxCell id="2" value="PlexusGameObject" style="rounded=0;whiteSpace=wrap;html=1;" parent="1" vertex="1">
                    <mxGeometry x="-60" y="440" width="120" height="60" as="geometry"/>
                </mxCell>
                <mxCell id="4" value="" style="endArrow=classic;html=1;exitX=1;exitY=0.5;exitDx=0;exitDy=0;" parent="1" source="2" edge="1">
                    <mxGeometry width="50" height="50" relative="1" as="geometry">
                        <mxPoint x="110" y="530" as="sourcePoint"/>
                        <mxPoint x="160" y="470" as="targetPoint"/>
                    </mxGeometry>
                </mxCell>
                <mxCell id="9" value="PlexusGameObjectData" style="rounded=0;whiteSpace=wrap;html=1;" parent="1" vertex="1">
                    <mxGeometry x="160" y="440" width="150" height="60" as="geometry"/>
                </mxCell>
                <mxCell id="10" value="" style="endArrow=classic;html=1;exitX=1;exitY=0.5;exitDx=0;exitDy=0;" parent="1" source="9" edge="1">
                    <mxGeometry width="50" height="50" relative="1" as="geometry">
                        <mxPoint x="350" y="520" as="sourcePoint"/>
                        <mxPoint x="400" y="470" as="targetPoint"/>
                    </mxGeometry>
                </mxCell>
                <mxCell id="95" style="edgeStyle=none;html=1;exitX=1;exitY=0.5;exitDx=0;exitDy=0;entryX=0;entryY=0.5;entryDx=0;entryDy=0;" edge="1" parent="1" source="11" target="12">
                    <mxGeometry relative="1" as="geometry"/>
                </mxCell>
                <mxCell id="11" value="PlexusObjectData" style="rounded=0;whiteSpace=wrap;html=1;" parent="1" vertex="1">
                    <mxGeometry x="400" y="440" width="120" height="60" as="geometry"/>
                </mxCell>
                <mxCell id="12" value="SpawnSystem" style="rounded=0;whiteSpace=wrap;html=1;" parent="1" vertex="1">
                    <mxGeometry x="600" y="440" width="120" height="60" as="geometry"/>
                </mxCell>
                <mxCell id="13" value="&amp;nbsp; PlexusObjectEntity" style="rounded=0;whiteSpace=wrap;html=1;align=left;" parent="1" vertex="1">
                    <mxGeometry x="912.5" y="200" width="795" height="90" as="geometry"/>
                </mxCell>
                <mxCell id="17" value="&amp;nbsp; EdgeEntity" style="rounded=0;whiteSpace=wrap;html=1;align=left;" parent="1" vertex="1">
                    <mxGeometry x="960" y="325" width="747.5" height="90" as="geometry"/>
                </mxCell>
                <mxCell id="35" value="SyncEntityPosition-ToGameobjectPositionData" style="rounded=0;whiteSpace=wrap;html=1;fontSize=14;fontColor=#1A1A1A;fillColor=#FFFF99;" parent="1" vertex="1">
                    <mxGeometry x="1147.5" y="215" width="210" height="60" as="geometry"/>
                </mxCell>
                <mxCell id="36" value="&amp;nbsp; &amp;nbsp;PlexusObjectData" style="rounded=0;whiteSpace=wrap;html=1;fontSize=14;fontColor=#1A1A1A;fillColor=#FFFF99;align=left;" parent="1" vertex="1">
                    <mxGeometry x="1377.5" y="215" width="250" height="60" as="geometry"/>
                </mxCell>
                <mxCell id="37" value="PlexusObject_Id" style="rounded=0;whiteSpace=wrap;html=1;fontSize=14;fontColor=#1A1A1A;fillColor=#FF6666;" parent="1" vertex="1">
                    <mxGeometry x="1507.5" y="230" width="110" height="30" as="geometry"/>
                </mxCell>
                <mxCell id="38" value="&amp;nbsp; Entity" style="rounded=0;whiteSpace=wrap;html=1;align=left;" parent="1" vertex="1">
                    <mxGeometry x="1022.5" y="20" width="717.5" height="90" as="geometry"/>
                </mxCell>
                <mxCell id="39" value="&amp;nbsp; ComponentData" style="rounded=0;whiteSpace=wrap;html=1;fontSize=14;fontColor=#1A1A1A;fillColor=#FFFF99;align=left;" parent="1" vertex="1">
                    <mxGeometry x="1110" y="35" width="470" height="55" as="geometry"/>
                </mxCell>
                <mxCell id="40" value="ComponentVariable" style="rounded=0;whiteSpace=wrap;html=1;fontSize=14;fontColor=#1A1A1A;fillColor=#FF6666;" parent="1" vertex="1">
                    <mxGeometry x="1385" y="47.5" width="160" height="30" as="geometry"/>
                </mxCell>
                <mxCell id="44" value="Legende:" style="text;html=1;strokeColor=none;fillColor=none;align=center;verticalAlign=middle;whiteSpace=wrap;rounded=0;fontSize=17;fontColor=#1A1A1A;fontStyle=1" parent="1" vertex="1">
                    <mxGeometry x="905" y="60" width="60" height="30" as="geometry"/>
                </mxCell>
                <mxCell id="45" value="&amp;nbsp; &amp;nbsp;PlexusObject_IdData" style="rounded=0;whiteSpace=wrap;html=1;fontSize=14;fontColor=#1A1A1A;fillColor=#FFFF99;align=left;" vertex="1" parent="1">
                    <mxGeometry x="1052.5" y="340" width="275" height="60" as="geometry"/>
                </mxCell>
                <mxCell id="46" value="PlexusObject_Id" style="rounded=0;whiteSpace=wrap;html=1;fontSize=14;fontColor=#1A1A1A;fillColor=#FF6666;" vertex="1" parent="1">
                    <mxGeometry x="1207.5" y="355" width="110" height="30" as="geometry"/>
                </mxCell>
                <mxCell id="47" value="&amp;nbsp; &amp;nbsp;EdgeData" style="rounded=0;whiteSpace=wrap;html=1;fontSize=14;fontColor=#1A1A1A;fillColor=#FFFF99;align=left;" vertex="1" parent="1">
                    <mxGeometry x="1350" y="340" width="92.5" height="60" as="geometry"/>
                </mxCell>
                <mxCell id="48" value="&amp;nbsp; &amp;nbsp;EdgeColorData" style="rounded=0;whiteSpace=wrap;html=1;fontSize=14;fontColor=#1A1A1A;fillColor=#FFFF99;align=left;" vertex="1" parent="1">
                    <mxGeometry x="1460" y="340" width="120" height="60" as="geometry"/>
                </mxCell>
                <mxCell id="49" value="&amp;nbsp; Parent" style="rounded=0;whiteSpace=wrap;html=1;fontSize=14;fontColor=#1A1A1A;fillColor=#FFFF99;align=left;" vertex="1" parent="1">
                    <mxGeometry x="1607.5" y="340" width="80" height="60" as="geometry"/>
                </mxCell>
                <mxCell id="50" value="&amp;nbsp; EdgeEntity" style="rounded=0;whiteSpace=wrap;html=1;align=left;" vertex="1" parent="1">
                    <mxGeometry x="960" y="425" width="747.5" height="90" as="geometry"/>
                </mxCell>
                <mxCell id="51" value="&amp;nbsp; &amp;nbsp;PlexusObject_IdData" style="rounded=0;whiteSpace=wrap;html=1;fontSize=14;fontColor=#1A1A1A;fillColor=#FFFF99;align=left;" vertex="1" parent="1">
                    <mxGeometry x="1052.5" y="440" width="275" height="60" as="geometry"/>
                </mxCell>
                <mxCell id="52" value="PlexusObject_Id" style="rounded=0;whiteSpace=wrap;html=1;fontSize=14;fontColor=#1A1A1A;fillColor=#FF6666;" vertex="1" parent="1">
                    <mxGeometry x="1207.5" y="455" width="110" height="30" as="geometry"/>
                </mxCell>
                <mxCell id="53" value="&amp;nbsp; &amp;nbsp;EdgeData" style="rounded=0;whiteSpace=wrap;html=1;fontSize=14;fontColor=#1A1A1A;fillColor=#FFFF99;align=left;" vertex="1" parent="1">
                    <mxGeometry x="1350" y="440" width="92.5" height="60" as="geometry"/>
                </mxCell>
                <mxCell id="54" value="&amp;nbsp; &amp;nbsp;EdgeColorData" style="rounded=0;whiteSpace=wrap;html=1;fontSize=14;fontColor=#1A1A1A;fillColor=#FFFF99;align=left;" vertex="1" parent="1">
                    <mxGeometry x="1460" y="440" width="120" height="60" as="geometry"/>
                </mxCell>
                <mxCell id="55" value="&amp;nbsp; Parent" style="rounded=0;whiteSpace=wrap;html=1;fontSize=14;fontColor=#1A1A1A;fillColor=#FFFF99;align=left;" vertex="1" parent="1">
                    <mxGeometry x="1607.5" y="440" width="80" height="60" as="geometry"/>
                </mxCell>
                <mxCell id="56" value="&amp;nbsp; EdgeEntity" style="rounded=0;whiteSpace=wrap;html=1;align=left;" vertex="1" parent="1">
                    <mxGeometry x="960" y="530" width="747.5" height="90" as="geometry"/>
                </mxCell>
                <mxCell id="57" value="&amp;nbsp; &amp;nbsp;PlexusObject_IdData" style="rounded=0;whiteSpace=wrap;html=1;fontSize=14;fontColor=#1A1A1A;fillColor=#FFFF99;align=left;" vertex="1" parent="1">
                    <mxGeometry x="1052.5" y="545" width="275" height="60" as="geometry"/>
                </mxCell>
                <mxCell id="58" value="PlexusObject_Id" style="rounded=0;whiteSpace=wrap;html=1;fontSize=14;fontColor=#1A1A1A;fillColor=#FF6666;" vertex="1" parent="1">
                    <mxGeometry x="1207.5" y="560" width="110" height="30" as="geometry"/>
                </mxCell>
                <mxCell id="59" value="&amp;nbsp; &amp;nbsp;EdgeData" style="rounded=0;whiteSpace=wrap;html=1;fontSize=14;fontColor=#1A1A1A;fillColor=#FFFF99;align=left;" vertex="1" parent="1">
                    <mxGeometry x="1350" y="545" width="92.5" height="60" as="geometry"/>
                </mxCell>
                <mxCell id="60" value="&amp;nbsp; &amp;nbsp;EdgeColorData" style="rounded=0;whiteSpace=wrap;html=1;fontSize=14;fontColor=#1A1A1A;fillColor=#FFFF99;align=left;" vertex="1" parent="1">
                    <mxGeometry x="1460" y="545" width="120" height="60" as="geometry"/>
                </mxCell>
                <mxCell id="61" value="&amp;nbsp; Parent" style="rounded=0;whiteSpace=wrap;html=1;fontSize=14;fontColor=#1A1A1A;fillColor=#FFFF99;align=left;" vertex="1" parent="1">
                    <mxGeometry x="1607.5" y="545" width="80" height="60" as="geometry"/>
                </mxCell>
                <mxCell id="62" value=".&lt;br&gt;.&lt;br&gt;.&lt;br&gt;.&lt;br&gt;.&lt;br&gt;.&lt;br&gt;.&lt;br&gt;.&lt;br&gt;.&lt;br&gt;.&lt;br&gt;.&lt;br&gt;.&lt;br&gt;.&lt;br&gt;.&lt;br&gt;.&lt;br&gt;" style="rounded=0;whiteSpace=wrap;html=1;" vertex="1" parent="1">
                    <mxGeometry x="910" y="325" width="40" height="295" as="geometry"/>
                </mxCell>
                <mxCell id="63" value="&amp;nbsp; VertexEntity" style="rounded=0;whiteSpace=wrap;html=1;align=left;" vertex="1" parent="1">
                    <mxGeometry x="965" y="680" width="1175" height="90" as="geometry"/>
                </mxCell>
                <mxCell id="64" value="&amp;nbsp; &amp;nbsp;PlexusObject_IdData" style="rounded=0;whiteSpace=wrap;html=1;fontSize=14;fontColor=#1A1A1A;fillColor=#FFFF99;align=left;" vertex="1" parent="1">
                    <mxGeometry x="1057.5" y="695" width="275" height="60" as="geometry"/>
                </mxCell>
                <mxCell id="65" value="PlexusObject_Id" style="rounded=0;whiteSpace=wrap;html=1;fontSize=14;fontColor=#1A1A1A;fillColor=#FF6666;" vertex="1" parent="1">
                    <mxGeometry x="1212.5" y="710" width="110" height="30" as="geometry"/>
                </mxCell>
                <mxCell id="66" value="&amp;nbsp; VertexMovementData" style="rounded=0;whiteSpace=wrap;html=1;fontSize=14;fontColor=#1A1A1A;fillColor=#FFFF99;align=left;" vertex="1" parent="1">
                    <mxGeometry x="1355" y="695" width="155" height="60" as="geometry"/>
                </mxCell>
                <mxCell id="67" value="&amp;nbsp; VertexColorData" style="rounded=0;whiteSpace=wrap;html=1;fontSize=14;fontColor=#1A1A1A;fillColor=#FFFF99;align=left;" vertex="1" parent="1">
                    <mxGeometry x="1900" y="695" width="120" height="60" as="geometry"/>
                </mxCell>
                <mxCell id="68" value="&amp;nbsp; Parent" style="rounded=0;whiteSpace=wrap;html=1;fontSize=14;fontColor=#1A1A1A;fillColor=#FFFF99;align=left;" vertex="1" parent="1">
                    <mxGeometry x="2040" y="695" width="80" height="60" as="geometry"/>
                </mxCell>
                <mxCell id="69" value="&amp;nbsp; LocalTransform" style="rounded=0;whiteSpace=wrap;html=1;fontSize=14;fontColor=#1A1A1A;fillColor=#FFFF99;align=left;" vertex="1" parent="1">
                    <mxGeometry x="1770" y="695" width="110" height="60" as="geometry"/>
                </mxCell>
                <mxCell id="70" value="&amp;nbsp; VertexAdditionalMovementData" style="rounded=0;whiteSpace=wrap;html=1;fontSize=14;fontColor=#1A1A1A;fillColor=#FFFF99;align=left;" vertex="1" parent="1">
                    <mxGeometry x="1530" y="695" width="220" height="60" as="geometry"/>
                </mxCell>
                <mxCell id="71" value=".&lt;br&gt;.&lt;br&gt;.&lt;br&gt;.&lt;br&gt;.&lt;br&gt;.&lt;br&gt;.&lt;br&gt;.&lt;br&gt;.&lt;br&gt;.&lt;br&gt;.&lt;br&gt;.&lt;br&gt;.&lt;br&gt;.&lt;br&gt;.&lt;br&gt;" style="rounded=0;whiteSpace=wrap;html=1;" vertex="1" parent="1">
                    <mxGeometry x="910" y="680" width="40" height="295" as="geometry"/>
                </mxCell>
                <mxCell id="72" value="&amp;nbsp; VertexEntity" style="rounded=0;whiteSpace=wrap;html=1;align=left;" vertex="1" parent="1">
                    <mxGeometry x="965" y="782.5" width="1175" height="90" as="geometry"/>
                </mxCell>
                <mxCell id="73" value="&amp;nbsp; &amp;nbsp;PlexusObject_IdData" style="rounded=0;whiteSpace=wrap;html=1;fontSize=14;fontColor=#1A1A1A;fillColor=#FFFF99;align=left;" vertex="1" parent="1">
                    <mxGeometry x="1057.5" y="797.5" width="275" height="60" as="geometry"/>
                </mxCell>
                <mxCell id="74" value="PlexusObject_Id" style="rounded=0;whiteSpace=wrap;html=1;fontSize=14;fontColor=#1A1A1A;fillColor=#FF6666;" vertex="1" parent="1">
                    <mxGeometry x="1212.5" y="812.5" width="110" height="30" as="geometry"/>
                </mxCell>
                <mxCell id="75" value="&amp;nbsp; VertexMovementData" style="rounded=0;whiteSpace=wrap;html=1;fontSize=14;fontColor=#1A1A1A;fillColor=#FFFF99;align=left;" vertex="1" parent="1">
                    <mxGeometry x="1355" y="797.5" width="155" height="60" as="geometry"/>
                </mxCell>
                <mxCell id="76" value="&amp;nbsp; VertexColorData" style="rounded=0;whiteSpace=wrap;html=1;fontSize=14;fontColor=#1A1A1A;fillColor=#FFFF99;align=left;" vertex="1" parent="1">
                    <mxGeometry x="1900" y="797.5" width="120" height="60" as="geometry"/>
                </mxCell>
                <mxCell id="77" value="&amp;nbsp; Parent" style="rounded=0;whiteSpace=wrap;html=1;fontSize=14;fontColor=#1A1A1A;fillColor=#FFFF99;align=left;" vertex="1" parent="1">
                    <mxGeometry x="2040" y="797.5" width="80" height="60" as="geometry"/>
                </mxCell>
                <mxCell id="78" value="&amp;nbsp; LocalTransform" style="rounded=0;whiteSpace=wrap;html=1;fontSize=14;fontColor=#1A1A1A;fillColor=#FFFF99;align=left;" vertex="1" parent="1">
                    <mxGeometry x="1770" y="797.5" width="110" height="60" as="geometry"/>
                </mxCell>
                <mxCell id="79" value="&amp;nbsp; VertexAdditionalMovementData" style="rounded=0;whiteSpace=wrap;html=1;fontSize=14;fontColor=#1A1A1A;fillColor=#FFFF99;align=left;" vertex="1" parent="1">
                    <mxGeometry x="1530" y="797.5" width="220" height="60" as="geometry"/>
                </mxCell>
                <mxCell id="80" value="&amp;nbsp; VertexEntity" style="rounded=0;whiteSpace=wrap;html=1;align=left;" vertex="1" parent="1">
                    <mxGeometry x="965" y="885" width="1175" height="90" as="geometry"/>
                </mxCell>
                <mxCell id="81" value="&amp;nbsp; &amp;nbsp;PlexusObject_IdData" style="rounded=0;whiteSpace=wrap;html=1;fontSize=14;fontColor=#1A1A1A;fillColor=#FFFF99;align=left;" vertex="1" parent="1">
                    <mxGeometry x="1057.5" y="900" width="275" height="60" as="geometry"/>
                </mxCell>
                <mxCell id="82" value="PlexusObject_Id" style="rounded=0;whiteSpace=wrap;html=1;fontSize=14;fontColor=#1A1A1A;fillColor=#FF6666;" vertex="1" parent="1">
                    <mxGeometry x="1212.5" y="915" width="110" height="30" as="geometry"/>
                </mxCell>
                <mxCell id="83" value="&amp;nbsp; VertexMovementData" style="rounded=0;whiteSpace=wrap;html=1;fontSize=14;fontColor=#1A1A1A;fillColor=#FFFF99;align=left;" vertex="1" parent="1">
                    <mxGeometry x="1355" y="900" width="155" height="60" as="geometry"/>
                </mxCell>
                <mxCell id="84" value="&amp;nbsp; VertexColorData" style="rounded=0;whiteSpace=wrap;html=1;fontSize=14;fontColor=#1A1A1A;fillColor=#FFFF99;align=left;" vertex="1" parent="1">
                    <mxGeometry x="1900" y="900" width="120" height="60" as="geometry"/>
                </mxCell>
                <mxCell id="85" value="&amp;nbsp; Parent" style="rounded=0;whiteSpace=wrap;html=1;fontSize=14;fontColor=#1A1A1A;fillColor=#FFFF99;align=left;" vertex="1" parent="1">
                    <mxGeometry x="2040" y="900" width="80" height="60" as="geometry"/>
                </mxCell>
                <mxCell id="86" value="&amp;nbsp; LocalTransform" style="rounded=0;whiteSpace=wrap;html=1;fontSize=14;fontColor=#1A1A1A;fillColor=#FFFF99;align=left;" vertex="1" parent="1">
                    <mxGeometry x="1770" y="900" width="110" height="60" as="geometry"/>
                </mxCell>
                <mxCell id="87" value="&amp;nbsp; VertexAdditionalMovementData" style="rounded=0;whiteSpace=wrap;html=1;fontSize=14;fontColor=#1A1A1A;fillColor=#FFFF99;align=left;" vertex="1" parent="1">
                    <mxGeometry x="1530" y="900" width="220" height="60" as="geometry"/>
                </mxCell>
                <mxCell id="88" value="" style="endArrow=classic;html=1;exitX=1;exitY=0.5;exitDx=0;exitDy=0;entryX=0;entryY=0.5;entryDx=0;entryDy=0;" edge="1" parent="1" source="12" target="50">
                    <mxGeometry width="50" height="50" relative="1" as="geometry">
                        <mxPoint x="670" y="610" as="sourcePoint"/>
                        <mxPoint x="720" y="560" as="targetPoint"/>
                    </mxGeometry>
                </mxCell>
                <mxCell id="89" value="" style="endArrow=classic;html=1;exitX=1;exitY=0.5;exitDx=0;exitDy=0;entryX=0;entryY=0.5;entryDx=0;entryDy=0;" edge="1" parent="1" source="12" target="72">
                    <mxGeometry width="50" height="50" relative="1" as="geometry">
                        <mxPoint x="730" y="640" as="sourcePoint"/>
                        <mxPoint x="780" y="590" as="targetPoint"/>
                    </mxGeometry>
                </mxCell>
                <mxCell id="90" value="" style="endArrow=classic;html=1;exitX=1;exitY=0.5;exitDx=0;exitDy=0;entryX=0;entryY=0.5;entryDx=0;entryDy=0;" edge="1" parent="1" source="12" target="17">
                    <mxGeometry width="50" height="50" relative="1" as="geometry">
                        <mxPoint x="650" y="620" as="sourcePoint"/>
                        <mxPoint x="700" y="570" as="targetPoint"/>
                    </mxGeometry>
                </mxCell>
                <mxCell id="91" value="" style="endArrow=classic;html=1;exitX=1;exitY=0.5;exitDx=0;exitDy=0;entryX=0;entryY=0.5;entryDx=0;entryDy=0;" edge="1" parent="1" source="12" target="56">
                    <mxGeometry width="50" height="50" relative="1" as="geometry">
                        <mxPoint x="710" y="660" as="sourcePoint"/>
                        <mxPoint x="760" y="610" as="targetPoint"/>
                    </mxGeometry>
                </mxCell>
                <mxCell id="92" value="" style="endArrow=classic;html=1;exitX=1;exitY=0.5;exitDx=0;exitDy=0;entryX=0;entryY=0.5;entryDx=0;entryDy=0;" edge="1" parent="1" source="12" target="63">
                    <mxGeometry width="50" height="50" relative="1" as="geometry">
                        <mxPoint x="700" y="670" as="sourcePoint"/>
                        <mxPoint x="750" y="620" as="targetPoint"/>
                    </mxGeometry>
                </mxCell>
                <mxCell id="93" value="" style="endArrow=classic;html=1;exitX=1;exitY=0.5;exitDx=0;exitDy=0;entryX=0;entryY=0.5;entryDx=0;entryDy=0;" edge="1" parent="1" source="12" target="80">
                    <mxGeometry width="50" height="50" relative="1" as="geometry">
                        <mxPoint x="660" y="680" as="sourcePoint"/>
                        <mxPoint x="710" y="630" as="targetPoint"/>
                    </mxGeometry>
                </mxCell>
                <mxCell id="94" value="" style="endArrow=classic;html=1;exitX=1;exitY=0.5;exitDx=0;exitDy=0;entryX=0;entryY=0.5;entryDx=0;entryDy=0;" edge="1" parent="1" source="12" target="13">
                    <mxGeometry width="50" height="50" relative="1" as="geometry">
                        <mxPoint x="740" y="380" as="sourcePoint"/>
                        <mxPoint x="790" y="330" as="targetPoint"/>
                    </mxGeometry>
                </mxCell>
            </root>
        </mxGraphModel>
    </diagram>
</mxfile>